<mxfile host="Electron" modified="2024-04-28T14:35:24.310Z" agent="Mozilla/5.0 (Macintosh; Intel Mac OS X 10_15_7) AppleWebKit/537.36 (KHTML, like Gecko) draw.io/23.0.2 Chrome/120.0.6099.109 Electron/28.1.0 Safari/537.36" version="23.0.2" etag="67hpVGBo9GE0djDCJWXg">
  <diagram id="RCNmUYtZyySMELUZVL3X" name="pageWithNumber">
    <mxGraphModel dx="-644" dy="-137" grid="0" gridSize="10" guides="1" tooltips="1" connect="1" arrows="1" fold="0" page="0" pageScale="1" pageWidth="850" pageHeight="1100" math="0" shadow="0">
      <root>
        <mxCell id="0" />
        <mxCell id="1" parent="0" />
        <UserObject label="%description%&lt;br&gt;&lt;b&gt;%xl_id%&lt;/b&gt; - &lt;i&gt;%owner%&lt;/i&gt;" description="This is a long task description like we would expect" estimated_completion_date="" estimated_duration="" function="" notes="" oqe="" owner="nate" phase="" status="todo" wbs="" xl_id="" placeholders="1" id="2">
          <mxCell style="whiteSpace=wrap;shape=mxgraph.flowchart.process;html=1;" parent="1" vertex="1">
            <mxGeometry x="20" y="190" width="200" height="100" as="geometry" />
          </mxCell>
        </UserObject>
        <UserObject label="%description%&lt;br&gt;&lt;b&gt;%xl_id%&lt;/b&gt; - &lt;i&gt;%owner%&lt;/i&gt;" description="Cell B" estimated_completion_date="" estimated_duration="" function="mechanical" notes="" oqe="" owner="alan" phase="detail design" status="done" wbs="" xl_id="" placeholders="1" id="3">
          <mxCell style="whiteSpace=wrap;shape=mxgraph.flowchart.decision;fillColor=#d5e8d4;strokeColor=#82b366;html=1;" parent="1" vertex="1">
            <mxGeometry x="330" y="50" width="100" height="100" as="geometry" />
          </mxCell>
        </UserObject>
        <UserObject label="%description%&lt;br&gt;&lt;b&gt;%xl_id%&lt;/b&gt; - &lt;i&gt;%owner%&lt;/i&gt;" description="Cell C" estimated_completion_date="" estimated_duration="" function="" notes="" oqe="" owner="" phase="" status="doing" wbs="" xl_id="" placeholders="1" id="4">
          <mxCell style="whiteSpace=wrap;shape=mxgraph.flowchart.decision;fillColor=#fff2cc;strokeColor=#d6b656;html=1;" parent="1" vertex="1">
            <mxGeometry x="540" y="80" width="100" height="100" as="geometry" />
          </mxCell>
        </UserObject>
        <UserObject label="%description%&lt;br&gt;&lt;b&gt;%xl_id%&lt;/b&gt; - &lt;i&gt;%owner%&lt;/i&gt;" description="Cell D - I would like to see what a long description on a predefined process looks like" estimated_completion_date="" estimated_duration="" function="" notes="" oqe="" owner="alan" phase="" status="waiting" wbs="" xl_id="" placeholders="1" id="5">
          <mxCell style="whiteSpace=wrap;shape=mxgraph.flowchart.predefined_process;fillColor=#f5f5f5;strokeColor=#666666;html=1;" parent="1" vertex="1">
            <mxGeometry x="700" y="190" width="200" height="100" as="geometry" />
          </mxCell>
        </UserObject>
        <UserObject label="%description%&lt;br&gt;&lt;b&gt;%xl_id%&lt;/b&gt; - &lt;i&gt;%owner%&lt;/i&gt;" description="Cell E" estimated_completion_date="" estimated_duration="" function="" notes="" oqe="" owner="" phase="" status="stop" wbs="" xl_id="" placeholders="1" id="6">
          <mxCell style="whiteSpace=wrap;shape=mxgraph.flowchart.data;fillColor=#f8cecc;strokeColor=#b85450;html=1;" parent="1" vertex="1">
            <mxGeometry x="700" y="30" width="200" height="100" as="geometry" />
          </mxCell>
        </UserObject>
        <UserObject label="%description%&lt;br&gt;&lt;b&gt;%xl_id%&lt;/b&gt; - &lt;i&gt;%owner%&lt;/i&gt;" description="" estimated_completion_date="" estimated_duration="" function="" notes="" oqe="" owner="" phase="" status="waiting" wbs="" xl_id="" placeholders="1" id="7">
          <mxCell style="whiteSpace=wrap;shape=mxgraph.flowchart.summing_function;fillColor=#f5f5f5;strokeColor=#666666;html=1;" parent="1" vertex="1">
            <mxGeometry x="960" y="190" width="100" height="100" as="geometry" />
          </mxCell>
        </UserObject>
        <UserObject label="%description%&lt;br&gt;&lt;b&gt;%xl_id%&lt;/b&gt; - &lt;i&gt;%owner%&lt;/i&gt;" description="Done" estimated_completion_date="" estimated_duration="" function="" notes="" oqe="" owner="" phase="" status="" wbs="" xl_id="" placeholders="1" id="8">
          <mxCell style="whiteSpace=wrap;shape=mxgraph.flowchart.terminator;html=1;" parent="1" vertex="1">
            <mxGeometry x="1120" y="215" width="100" height="50" as="geometry" />
          </mxCell>
        </UserObject>
        <UserObject label="%description%&lt;br&gt;&lt;b&gt;%xl_id%&lt;/b&gt; - &lt;i&gt;%owner%&lt;/i&gt;" description="Repo" estimated_completion_date="" estimated_duration="" function="" notes="" oqe="" owner="" phase="" status="" wbs="" xl_id="" placeholders="1" id="9">
          <mxCell style="whiteSpace=wrap;shape=mxgraph.flowchart.document;html=1;" parent="1" vertex="1">
            <mxGeometry x="280" y="330" width="200" height="100" as="geometry" />
          </mxCell>
        </UserObject>
        <UserObject label="%description%&lt;br&gt;&lt;b&gt;%xl_id%&lt;/b&gt; - &lt;i&gt;%owner%&lt;/i&gt;" description="" estimated_completion_date="" estimated_duration="" function="" notes="" oqe="" owner="" phase="" status="" wbs="" xl_id="" placeholders="1" id="10">
          <mxCell style="whiteSpace=wrap;shape=mxgraph.flowchart.or;html=1;" parent="1" vertex="1">
            <mxGeometry x="750" y="350" width="100" height="100" as="geometry" />
          </mxCell>
        </UserObject>
        <UserObject label="%description%&lt;br&gt;&lt;b&gt;%xl_id%&lt;/b&gt; - &lt;i&gt;%owner%&lt;/i&gt;" description="start" estimated_completion_date="" estimated_duration="" function="" notes="" oqe="" owner="" phase="" status="" wbs="" xl_id="" placeholders="1" id="11">
          <mxCell style="whiteSpace=wrap;shape=mxgraph.flowchart.start_1;html=1;" parent="1" vertex="1">
            <mxGeometry x="540" y="360" width="100" height="100" as="geometry" />
          </mxCell>
        </UserObject>
        <mxCell id="12" value="" style="edgeStyle=orthogonalEdgeStyle;rounded=0;orthogonalLoop=1;jettySize=auto;html=1;" parent="1" source="2" target="3" edge="1">
          <mxGeometry relative="1" as="geometry">
            <Array as="points">
              <mxPoint x="232" y="206.25" />
              <mxPoint x="268" y="100" />
            </Array>
          </mxGeometry>
        </mxCell>
        <mxCell id="13" value="" style="edgeStyle=orthogonalEdgeStyle;rounded=0;orthogonalLoop=1;jettySize=auto;html=1;" parent="1" source="2" target="4" edge="1">
          <mxGeometry relative="1" as="geometry">
            <Array as="points">
              <mxPoint x="234" y="228.75" />
              <mxPoint x="250" y="210" />
              <mxPoint x="510" y="210" />
              <mxPoint x="528" y="152.5" />
            </Array>
          </mxGeometry>
        </mxCell>
        <mxCell id="14" value="" style="edgeStyle=orthogonalEdgeStyle;rounded=0;orthogonalLoop=1;jettySize=auto;html=1;" parent="1" source="2" target="5" edge="1">
          <mxGeometry relative="1" as="geometry">
            <Array as="points">
              <mxPoint x="234" y="251.25" />
              <mxPoint x="250" y="270" />
              <mxPoint x="510" y="270" />
              <mxPoint x="510" y="240" />
              <mxPoint x="670" y="240" />
              <mxPoint x="688" y="262.5" />
            </Array>
          </mxGeometry>
        </mxCell>
        <mxCell id="15" value="" style="edgeStyle=orthogonalEdgeStyle;rounded=0;orthogonalLoop=1;jettySize=auto;html=1;" parent="1" source="2" target="9" edge="1">
          <mxGeometry relative="1" as="geometry">
            <Array as="points">
              <mxPoint x="232" y="273.75" />
              <mxPoint x="268" y="380" />
            </Array>
          </mxGeometry>
        </mxCell>
        <mxCell id="16" value="" style="edgeStyle=orthogonalEdgeStyle;rounded=0;orthogonalLoop=1;jettySize=auto;html=1;" parent="1" source="5" target="7" edge="1">
          <mxGeometry relative="1" as="geometry">
            <Array as="points">
              <mxPoint x="912" y="240" />
              <mxPoint x="946" y="240" />
            </Array>
          </mxGeometry>
        </mxCell>
        <mxCell id="17" value="" style="edgeStyle=orthogonalEdgeStyle;rounded=0;orthogonalLoop=1;jettySize=auto;html=1;" parent="1" source="6" target="7" edge="1">
          <mxGeometry relative="1" as="geometry">
            <Array as="points">
              <mxPoint x="912" y="80" />
              <mxPoint x="948" y="210" />
            </Array>
          </mxGeometry>
        </mxCell>
        <mxCell id="18" value="" style="edgeStyle=orthogonalEdgeStyle;rounded=0;orthogonalLoop=1;jettySize=auto;html=1;" parent="1" source="7" target="8" edge="1">
          <mxGeometry relative="1" as="geometry">
            <Array as="points">
              <mxPoint x="1072" y="240" />
              <mxPoint x="1108" y="240" />
            </Array>
          </mxGeometry>
        </mxCell>
        <mxCell id="19" value="" style="edgeStyle=orthogonalEdgeStyle;rounded=0;orthogonalLoop=1;jettySize=auto;html=1;" parent="1" source="9" target="10" edge="1">
          <mxGeometry relative="1" as="geometry">
            <Array as="points">
              <mxPoint x="492" y="380" />
              <mxPoint x="510" y="300" />
              <mxPoint x="670" y="300" />
              <mxPoint x="688" y="377.5" />
            </Array>
          </mxGeometry>
        </mxCell>
        <mxCell id="20" value="" style="edgeStyle=orthogonalEdgeStyle;rounded=0;orthogonalLoop=1;jettySize=auto;html=1;" parent="1" source="10" target="7" edge="1">
          <mxGeometry relative="1" as="geometry">
            <Array as="points">
              <mxPoint x="912" y="400" />
              <mxPoint x="948" y="270" />
            </Array>
          </mxGeometry>
        </mxCell>
        <mxCell id="21" value="" style="edgeStyle=orthogonalEdgeStyle;rounded=0;orthogonalLoop=1;jettySize=auto;html=1;" parent="1" source="11" target="10" edge="1">
          <mxGeometry relative="1" as="geometry">
            <Array as="points">
              <mxPoint x="652" y="410" />
              <mxPoint x="688" y="422.5" />
            </Array>
          </mxGeometry>
        </mxCell>
        <mxCell id="22" value="Yes" style="edgeStyle=orthogonalEdgeStyle;rounded=0;orthogonalLoop=1;jettySize=auto;html=1;" parent="1" source="3" target="4" edge="1">
          <mxGeometry relative="1" as="geometry">
            <Array as="points">
              <mxPoint x="492" y="122.5" />
              <mxPoint x="528" y="107.5" />
            </Array>
          </mxGeometry>
        </mxCell>
        <mxCell id="23" value="Pass" style="edgeStyle=orthogonalEdgeStyle;rounded=0;orthogonalLoop=1;jettySize=auto;html=1;" parent="1" source="4" target="6" edge="1">
          <mxGeometry relative="1" as="geometry">
            <Array as="points">
              <mxPoint x="652" y="107.5" />
              <mxPoint x="688" y="102.5" />
            </Array>
          </mxGeometry>
        </mxCell>
        <mxCell id="24" value="No" style="edgeStyle=orthogonalEdgeStyle;rounded=0;orthogonalLoop=1;jettySize=auto;html=1;" parent="1" source="3" target="6" edge="1">
          <mxGeometry relative="1" as="geometry">
            <Array as="points">
              <mxPoint x="492" y="77.5" />
              <mxPoint x="510" y="20" />
              <mxPoint x="670" y="20" />
              <mxPoint x="688" y="57.5" />
            </Array>
          </mxGeometry>
        </mxCell>
        <mxCell id="25" value="Fail" style="edgeStyle=orthogonalEdgeStyle;rounded=0;orthogonalLoop=1;jettySize=auto;html=1;" parent="1" source="4" target="5" edge="1">
          <mxGeometry relative="1" as="geometry">
            <Array as="points">
              <mxPoint x="652" y="152.5" />
              <mxPoint x="688" y="217.5" />
            </Array>
          </mxGeometry>
        </mxCell>
      </root>
    </mxGraphModel>
  </diagram>
</mxfile>
